Coordinates
version=1
nRows=9
nColumns=36
inDegrees=yes

Units are S.I. units (second, meters, Newtons, ...)
If the header above contains a line with 'inDegrees', this indicates whether rotational values are in degrees (yes) or radians (no).

endheader
time	pelvis_tilt	pelvis_list	pelvis_rotation	pelvis_tx	pelvis_ty	pelvis_tz	hip_flexion_r	hip_adduction_r	hip_rotation_r	knee_angle_r	knee_angle_r_beta	ankle_angle_r	subtalar_angle_r	mtp_angle_r	hip_flexion_l	hip_adduction_l	hip_rotation_l	knee_angle_l	knee_angle_l_beta	ankle_angle_l	subtalar_angle_l	mtp_angle_l	lumbar_extension	lumbar_bending	lumbar_rotation	arm_flex_r	arm_add_r	arm_rot_r	elbow_flex_r	pro_sup_r	arm_flex_l	arm_add_l	arm_rot_l	elbow_flex_l	pro_sup_l
      1.53000000	     -0.05149333	      0.67717961	     -4.71706750	     -0.38267563	      1.04556678	     -0.54680869	     26.95711065	     -2.60721736	      3.51447728	     19.42479465	      0.33902662	    -28.23468143	     -9.55017709	     -6.44742875	     23.24839991	     -7.17706606	     -4.25140225	     12.77664012	      0.22299444	    -29.47456090	      3.94799412	     -6.44742875	    -22.30922217	     -1.73266340	     -0.78186728	    -12.21801112	    -22.76479072	    -24.96395032	    121.89299857	    106.61747012	     -9.04879783	    -15.14600516	     -7.24219801	    106.89635304	     94.40696566
      1.54000000	      0.74577129	      0.55062625	     -4.48755167	     -0.37108144	      1.02019150	     -0.54712892	     26.94272740	     -2.67781160	      4.03528520	     21.28686604	      0.37152590	    -29.84665959	    -11.67614278	     -6.61907620	     23.52333359	     -7.18802201	     -3.22068496	     14.88023942	      0.25970917	    -30.55916302	      1.56410354	     -6.61907620	    -22.68620137	     -1.38218668	     -0.97712464	    -11.42191790	    -22.38385997	    -24.12651187	    123.10551528	    109.58811495	     -8.23729491	    -14.74600418	     -7.14831256	    107.61346543	     94.70157413
      1.55000000	      1.47753404	      0.42102588	     -4.09454595	     -0.35994553	      0.99363515	     -0.54793529	     27.22667586	     -2.83094636	      4.27572858	     23.56810877	      0.41134110	    -31.31484147	    -12.83834919	     -6.66413099	     24.08007790	     -7.07082200	     -1.76429066	     17.13116068	      0.29899516	    -31.95074506	     -0.06787625	     -6.66413099	    -23.15020152	     -0.88971778	     -1.29302078	    -10.52890023	    -22.13219490	    -22.95894705	    124.72549277	    109.37810473	     -7.36138826	    -14.44003757	     -6.96292973	    108.39113246	     94.43976656
      1.56000000	      2.03460528	      0.39810889	     -3.88394269	     -0.34950917	      0.96596229	     -0.54831146	     28.08206787	     -2.92053826	      4.54355778	     27.16160534	      0.47405944	    -28.56447102	    -13.92164952	     -6.72426549	     25.03936912	     -6.88921910	     -0.33184853	     20.45385740	      0.35698716	    -29.48997058	     -1.61493248	     -6.72426549	    -23.53734357	     -0.57759728	     -1.45389363	     -9.48294074	    -21.96990936	    -21.44131596	    126.25054377	    107.98570194	     -6.33311377	    -14.27743986	     -6.71564537	    109.16040247	     93.48565909
      1.57000000	      2.36001752	      0.48738644	     -3.87172149	     -0.33973276	      0.93692751	     -0.54799778	     29.64608339	     -2.85809521	      4.71553882	     32.89631352	      0.57414898	    -19.09726028	    -16.54430907	     -6.82839662	     26.69211300	     -6.62772586	      0.98335421	     26.15465296	      0.45648481	    -20.36133623	     -4.82232026	     -6.82839662	    -23.70187380	     -0.49977003	     -1.54066289	     -8.21458753	    -21.84260322	    -19.42105093	    127.54894880	    104.78979691	     -5.27423469	    -14.34972396	     -6.48137430	    109.83165621	     91.39751472
      1.58000000	      2.46072566	      0.48202009	     -3.91223465	     -0.33068799	      0.90657669	     -0.54748569	     31.78893048	     -2.66716881	      4.55206297	     39.97934334	      0.69777117	     -4.20195841	    -16.34542257	     -6.95917696	     29.20821415	     -6.57764591	      1.92391926	     34.07044094	      0.59464137	     -5.30927927	     -5.38588538	     -6.95917696	    -23.76628673	     -0.42532599	     -2.16513158	     -6.16721255	    -21.91788578	    -16.73821866	    127.94833802	    104.21108752	     -4.80433342	    -14.25549910	     -7.33368751	    111.06459040	     90.13874663
      1.59000000	      1.81446348	      0.52267651	     -3.93064115	     -0.32397890	      0.87611799	     -0.54699183	     35.34610421	     -2.35051334	      4.59077979	     47.23154670	      0.82434600	      6.46090585	    -16.98624950	     -7.04139151	     33.17392582	     -6.40493136	      2.91321390	     42.38235287	      0.73971160	      6.12407043	     -6.35748719	     -7.04139151	    -23.37895672	     -0.36407154	     -2.52321447	     -4.21672883	    -21.85112594	    -14.58036416	    127.55581285	    107.23553254	     -3.76149520	    -14.37908810	     -7.85851496	    111.12592505	     90.75416944
      1.60000000	      0.13377454	      0.52587623	     -3.90010650	     -0.32039045	      0.84681422	     -0.54650306	     41.11704850	     -1.83568092	      4.94737266	     54.92080147	      0.95854881	     10.47913948	    -18.82183934	     -7.08438468	     39.23992436	     -6.07661560	      4.51229690	     50.85914789	      0.88765959	     10.71313255	     -8.95549954	     -7.08438468	    -22.49886328	     -0.25736947	     -2.39057973	     -2.58500004	    -21.36030453	    -13.09089464	    126.99736171	    106.04788491	     -1.95343402	    -14.51651573	     -7.80919588	    110.32794535	     89.77647563
      1.61000000	     -1.51052419	      0.22843487	     -4.01791135	     -0.31804960	      0.82010892	     -0.54590001	     47.56725061	     -0.97223037	      5.33376443	     62.97551619	      1.09913011	     11.42695067	    -19.45075023	     -7.09375502	     46.10460829	     -6.14775277	      6.07333244	     59.77633515	      1.04329386	     12.10257382	     -9.65624970	     -7.09375502	    -22.13911038	      0.06997492	     -2.10321200	     -0.86749840	    -20.78965778	    -11.99274006	    125.59766003	    107.20704686	     -0.14507627	    -14.40510887	     -8.18259156	    108.94709609	     90.03506666
